<svg
  viewBox="0 0 112 82"
  xmlns="http://www.w3.org/2000/svg"
  xmlns:xlink="http://www.w3.org/1999/xlink"
>
  <linearGradient id="a" x1="0%" x2="100%" y1="50.035386%" y2="50.035386%">
    <stop offset="0" stop-color="#e94361" stop-opacity="0" />
    <stop offset=".11" stop-color="#e94361" stop-opacity=".17" />
    <stop offset=".29" stop-color="#e94361" stop-opacity=".42" />
    <stop offset=".46" stop-color="#e94361" stop-opacity=".63" />
    <stop offset=".62" stop-color="#e94361" stop-opacity=".79" />
    <stop offset=".77" stop-color="#e94361" stop-opacity=".9" />
    <stop offset=".9" stop-color="#e94361" stop-opacity=".98" />
    <stop offset="1" stop-color="#e94361" />
  </linearGradient>
  <g fill="none" fill-rule="nonzero">
    <g fill="#000">
      <path
        d="m22.4156571 18.047098c6.8952858 0 12.1723715 2.7783138 13.4238858 6.7268628v-5.9148628h13.3441714v45.177451h-13.3122857v-5.9228235c-1.2515143 3.8530196-6.5286 6.7268627-13.4238857 6.7268627-12.80211433 0-22.37580004-10.3490196-22.37580004-23.4047058 0-13.0556863 9.5418-23.3887844 22.34391424-23.3887844zm2.3914286 34.6930981c6.5365714 0 11.8136572-4.9277255 11.8136572-11.296353 0-6.3686274-5.2770858-11.2963529-11.8136572-11.2963529-6.2471453 0-11.3114571 5.0575495-11.3114571 11.2963529 0 6.2388035 5.0643118 11.296353 11.3114571 11.296353z"
      />
      <path
        d="m63.0938571 30.967451h-7.4214v-12.0924314h7.4214v-1.2498431c0-7.4353726 1.7856-11.20082356 5.2770858-13.97913728 3.7545428-3.12858824 8.4975428-3.31168628 12.4274571-3.31168628 1.798962.02681715 3.5940164.17576198 5.3727429.44580392v11.14509804c-1.2924819-.3793964-2.6408888-.5329095-3.9857143-.4537647-4.2089143 0-6.1698857 1.5284706-6.1698857 5.3735294v2.0618431h9.0316285v12.0605883h-9.0714857v33.0531765h-12.8818286z"
      />
      <path d="m91.4721429 18.8511373h13.3362001v45.1694902h-13.3362001z" />
      <path
        d="m35.8714286 72.7774902h.8609143v.8677255c.4412488-.703134 1.2359847-1.1045679 2.0646-1.0428628 1.7037669 0 3.0849428 1.3793317 3.0849428 3.0808236 0 1.7014918-1.3811759 3.0808235-3.0849428 3.0808235-.8262723.0597858-1.6188824-.3375182-2.0646-1.034902v3.0887844h-.8609143zm2.9255143 5.1904314c1.1896688-.0992654 2.1046232-1.0925252 2.1046232-2.2847451s-.9149544-2.1854798-2.1046232-2.2847451c-1.2635171 0-2.2878 1.0229152-2.2878 2.2847451 0 1.2618298 1.0242829 2.2847451 2.2878 2.2847451z"
      />
      <path
        d="m45.3096 72.6023529c.8286152-.0617051 1.6233512.3397288 2.0646 1.0428628v-.8677255h.8609143v5.8113725h-.8609143v-.8597647c-.4457177.6973838-1.2383277 1.0946878-2.0646 1.034902-1.7037669 0-3.0849429-1.3793317-3.0849429-3.0808235 0-1.7014919 1.381176-3.0808236 3.0849429-3.0808236zm0 5.3655687c1.2635171 0 2.2878-1.0229153 2.2878-2.2847451 0-1.2618299-1.0242829-2.2847451-2.2878-2.2847451-1.1896688.0992653-2.1046233 1.0925252-2.1046233 2.2847451s.9149545 2.1854797 2.1046233 2.2847451z"
      />
      <path
        d="m50.0526 72.7774902h.8529429v.9791765c.3238394-.6849559 1.0278842-1.108702 1.7856-1.0747059h.3587142v.923451c-.1886717-.0396516-.3811563-.0583404-.5739428-.0557255-.4362408-.0168251-.8590984.1522298-1.163202.4650381-.3041035.3128084-.4608149.7399126-.4310837 1.1748834v3.3753726h-.8529429z"
      />
      <path
        d="m57.2029714 70.5484706h5.5002857v1.5921569h-3.7146857v1.512549h3.4835143v1.5921568h-3.4835143v1.7195294h3.8023715v1.5921569h-5.58z"
      />
      <path
        d="m66.2983714 72.674c.702948-.095929 1.3928485.2485607 1.7377715.8677255v-2.9932549h1.7218285v8.0403921h-1.7218285v-.7562745c-.3519255.6110994-1.0377314.9504027-1.7377715.8597647-1.6641444 0-3.0132-1.3472542-3.0132-3.0091764 0-1.6619223 1.3490556-3.0091765 3.0132-3.0091765zm.3108857 4.466c.8056573 0 1.4587715-.6522421 1.4587715-1.4568235s-.6531142-1.4568236-1.4587715-1.4568236c-.8056572 0-1.4587714.6522422-1.4587714 1.4568236s.6531142 1.4568235 1.4587714 1.4568235z"
      />
      <path
        d="m73.5364286 72.6739997c.8848285 0 1.5942857.3582356 1.7298.8677258v-.7960784h1.7218285v4.8481176c0 1.1941177-.1594285 2.1653333-1.0123714 2.8340392-.6154688.4466712-1.3596832.6813724-2.1204.6687059-1.0116555.0430112-2.0108779-.2357285-2.8537714-.7960784l.7971428-1.2418824c.5316625.3533564 1.1549525.5442434 1.7935715.5492941.4158406.0159728.8276902-.086162 1.1877428-.294549.3769779-.3095106.5694144-.7899595.5101715-1.2737255v-.1273725c-.4405182.5127618-1.104637.7774598-1.7776286.7085098-.7785658.0045497-1.525752-.3061494-2.0710082-.861178-.5452561-.5550287-.8420443-1.3070148-.8226204-2.0843122-.0237197-.7878056.27316-1.5516009.8228973-2.1171043.5497374-.5655034 1.3054302-.8844674 2.0946456-.8841117zm.3108857 4.4421179c.7989291-.0175857 1.4331905-.6770629 1.4185883-1.4749857-.0146023-.7979228-.6725693-1.4338149-1.4716083-1.4222354s-1.4382533.66627-1.4296657 1.46428c.0019969.3877657.16041.7583607.4394356 1.0280248.2790255.2696642.6551091.4156334 1.0432501.4049163z"
      />
      <path
        d="m77.8569429 75.6752157c-.0298919-.8414548.3012589-1.6556479.9102278-2.237957s1.437855-.8773682 2.2783436-.8110234c.7963945-.0311902 1.5700753.2688647 2.1366577.8286551.5665825.5597905.8753179 1.3291761.852628 2.1247959v.5572549h-4.4082c0 .6925882.6377143 1.1383921 1.5464571 1.1383921.53378.0187677 1.0511136-.1861577 1.4268858-.5652157l1.0044.9552942c-.644936.6989555-1.5594974 1.0874876-2.511 1.0667451-.8360386.0707885-1.6625561-.218345-2.271618-.7946607-.609062-.5763156-.9426911-1.3849532-.9169535-2.2224766zm4.4161714-.6607451c-.0905724-.6089676-.6466249-1.0377512-1.2594857-.9712157-.6468276-.0721486-1.248284.3418609-1.4109429.9712157z"
      />
      <path
        d="m84.8638286 72.7774902h1.7218285v.7244314c.3591558-.5817235 1.0161914-.9113429 1.6979143-.851804 1.4348572 0 2.232.9075295 2.232 2.3882353v3.5266275h-1.7218285v-3.3196471c.0317195-.2942751-.069378-.5873791-.2758397-.7997199-.2064617-.2123409-.4968579-.3218786-.7923318-.2988683-.3078398-.0091434-.6056018.110078-.8218561.329064-.2162544.2189861-.3314882.5179776-.3180582.8252497v3.2639216h-1.7218285z"
      />
      <path
        d="m94.2462 72.674c.702948-.095929 1.3928484.2485607 1.7377714.8677255v-2.9932549h1.7218286v8.0403921h-1.7218286v-.7562745c-.3519255.6110994-1.0377314.9504027-1.7377714.8597647-1.6641444 0-3.0132-1.3472542-3.0132-3.0091764 0-1.6619223 1.3490556-3.0091765 3.0132-3.0091765zm.3108857 4.466c.8056572 0 1.4587714-.6522421 1.4587714-1.4568235s-.6531142-1.4568236-1.4587714-1.4568236-1.4587714.6522422-1.4587714 1.4568236.6531142 1.4568235 1.4587714 1.4568235z"
      />
      <path
        d="m101.484257 72.674c.8928 0 1.594286.3582353 1.7298.8677255v-.7960784h1.721829v5.8113725h-1.721829v-.7562745c-.346072.6131198-1.031347.953723-1.7298.8597647-1.6641443 0-3.0131999-1.3472542-3.0131999-3.0091765 0-1.6619222 1.3490556-3.0091764 3.0131999-3.0091764zm.310886 4.466c.805657 0 1.458771-.6522421 1.458771-1.4568235s-.653114-1.4568236-1.458771-1.4568236-1.458772.6522422-1.458772 1.4568236.653115 1.4568235 1.458772 1.4568235z"
      />
    </g>
    <path
      d="m90.132943.692588h20.893114v11.248588h-20.893114z"
      fill="url(#a)"
    />
  </g>
</svg>
